%TF.GenerationSoftware,KiCad,Pcbnew,7.0.7*%
%TF.CreationDate,2023-10-08T10:30:23+09:00*%
%TF.ProjectId,lvls,6c766c73-2e6b-4696-9361-645f70636258,rev?*%
%TF.SameCoordinates,Original*%
%TF.FileFunction,Legend,Top*%
%TF.FilePolarity,Positive*%
%FSLAX46Y46*%
G04 Gerber Fmt 4.6, Leading zero omitted, Abs format (unit mm)*
G04 Created by KiCad (PCBNEW 7.0.7) date 2023-10-08 10:30:23*
%MOMM*%
%LPD*%
G01*
G04 APERTURE LIST*
%ADD10C,0.150000*%
%ADD11C,0.350000*%
G04 APERTURE END LIST*
D10*
X133758047Y-34849819D02*
X133424714Y-34373628D01*
X133186619Y-34849819D02*
X133186619Y-33849819D01*
X133186619Y-33849819D02*
X133567571Y-33849819D01*
X133567571Y-33849819D02*
X133662809Y-33897438D01*
X133662809Y-33897438D02*
X133710428Y-33945057D01*
X133710428Y-33945057D02*
X133758047Y-34040295D01*
X133758047Y-34040295D02*
X133758047Y-34183152D01*
X133758047Y-34183152D02*
X133710428Y-34278390D01*
X133710428Y-34278390D02*
X133662809Y-34326009D01*
X133662809Y-34326009D02*
X133567571Y-34373628D01*
X133567571Y-34373628D02*
X133186619Y-34373628D01*
X134186619Y-34849819D02*
X134186619Y-33849819D01*
X134186619Y-33849819D02*
X134567571Y-33849819D01*
X134567571Y-33849819D02*
X134662809Y-33897438D01*
X134662809Y-33897438D02*
X134710428Y-33945057D01*
X134710428Y-33945057D02*
X134758047Y-34040295D01*
X134758047Y-34040295D02*
X134758047Y-34183152D01*
X134758047Y-34183152D02*
X134710428Y-34278390D01*
X134710428Y-34278390D02*
X134662809Y-34326009D01*
X134662809Y-34326009D02*
X134567571Y-34373628D01*
X134567571Y-34373628D02*
X134186619Y-34373628D01*
X135139000Y-33945057D02*
X135186619Y-33897438D01*
X135186619Y-33897438D02*
X135281857Y-33849819D01*
X135281857Y-33849819D02*
X135519952Y-33849819D01*
X135519952Y-33849819D02*
X135615190Y-33897438D01*
X135615190Y-33897438D02*
X135662809Y-33945057D01*
X135662809Y-33945057D02*
X135710428Y-34040295D01*
X135710428Y-34040295D02*
X135710428Y-34135533D01*
X135710428Y-34135533D02*
X135662809Y-34278390D01*
X135662809Y-34278390D02*
X135091381Y-34849819D01*
X135091381Y-34849819D02*
X135710428Y-34849819D01*
X136329476Y-33849819D02*
X136424714Y-33849819D01*
X136424714Y-33849819D02*
X136519952Y-33897438D01*
X136519952Y-33897438D02*
X136567571Y-33945057D01*
X136567571Y-33945057D02*
X136615190Y-34040295D01*
X136615190Y-34040295D02*
X136662809Y-34230771D01*
X136662809Y-34230771D02*
X136662809Y-34468866D01*
X136662809Y-34468866D02*
X136615190Y-34659342D01*
X136615190Y-34659342D02*
X136567571Y-34754580D01*
X136567571Y-34754580D02*
X136519952Y-34802200D01*
X136519952Y-34802200D02*
X136424714Y-34849819D01*
X136424714Y-34849819D02*
X136329476Y-34849819D01*
X136329476Y-34849819D02*
X136234238Y-34802200D01*
X136234238Y-34802200D02*
X136186619Y-34754580D01*
X136186619Y-34754580D02*
X136139000Y-34659342D01*
X136139000Y-34659342D02*
X136091381Y-34468866D01*
X136091381Y-34468866D02*
X136091381Y-34230771D01*
X136091381Y-34230771D02*
X136139000Y-34040295D01*
X136139000Y-34040295D02*
X136186619Y-33945057D01*
X136186619Y-33945057D02*
X136234238Y-33897438D01*
X136234238Y-33897438D02*
X136329476Y-33849819D01*
X137519952Y-34183152D02*
X137519952Y-34849819D01*
X137281857Y-33802200D02*
X137043762Y-34516485D01*
X137043762Y-34516485D02*
X137662809Y-34516485D01*
X138234238Y-33849819D02*
X138329476Y-33849819D01*
X138329476Y-33849819D02*
X138424714Y-33897438D01*
X138424714Y-33897438D02*
X138472333Y-33945057D01*
X138472333Y-33945057D02*
X138519952Y-34040295D01*
X138519952Y-34040295D02*
X138567571Y-34230771D01*
X138567571Y-34230771D02*
X138567571Y-34468866D01*
X138567571Y-34468866D02*
X138519952Y-34659342D01*
X138519952Y-34659342D02*
X138472333Y-34754580D01*
X138472333Y-34754580D02*
X138424714Y-34802200D01*
X138424714Y-34802200D02*
X138329476Y-34849819D01*
X138329476Y-34849819D02*
X138234238Y-34849819D01*
X138234238Y-34849819D02*
X138139000Y-34802200D01*
X138139000Y-34802200D02*
X138091381Y-34754580D01*
X138091381Y-34754580D02*
X138043762Y-34659342D01*
X138043762Y-34659342D02*
X137996143Y-34468866D01*
X137996143Y-34468866D02*
X137996143Y-34230771D01*
X137996143Y-34230771D02*
X138043762Y-34040295D01*
X138043762Y-34040295D02*
X138091381Y-33945057D01*
X138091381Y-33945057D02*
X138139000Y-33897438D01*
X138139000Y-33897438D02*
X138234238Y-33849819D01*
X138996143Y-34468866D02*
X139758048Y-34468866D01*
X140139000Y-33849819D02*
X140805666Y-33849819D01*
X140805666Y-33849819D02*
X140139000Y-34849819D01*
X140139000Y-34849819D02*
X140805666Y-34849819D01*
X141567571Y-34802200D02*
X141472333Y-34849819D01*
X141472333Y-34849819D02*
X141281857Y-34849819D01*
X141281857Y-34849819D02*
X141186619Y-34802200D01*
X141186619Y-34802200D02*
X141139000Y-34706961D01*
X141139000Y-34706961D02*
X141139000Y-34326009D01*
X141139000Y-34326009D02*
X141186619Y-34230771D01*
X141186619Y-34230771D02*
X141281857Y-34183152D01*
X141281857Y-34183152D02*
X141472333Y-34183152D01*
X141472333Y-34183152D02*
X141567571Y-34230771D01*
X141567571Y-34230771D02*
X141615190Y-34326009D01*
X141615190Y-34326009D02*
X141615190Y-34421247D01*
X141615190Y-34421247D02*
X141139000Y-34516485D01*
X142043762Y-34849819D02*
X142043762Y-34183152D01*
X142043762Y-34373628D02*
X142091381Y-34278390D01*
X142091381Y-34278390D02*
X142139000Y-34230771D01*
X142139000Y-34230771D02*
X142234238Y-34183152D01*
X142234238Y-34183152D02*
X142329476Y-34183152D01*
X142805667Y-34849819D02*
X142710429Y-34802200D01*
X142710429Y-34802200D02*
X142662810Y-34754580D01*
X142662810Y-34754580D02*
X142615191Y-34659342D01*
X142615191Y-34659342D02*
X142615191Y-34373628D01*
X142615191Y-34373628D02*
X142662810Y-34278390D01*
X142662810Y-34278390D02*
X142710429Y-34230771D01*
X142710429Y-34230771D02*
X142805667Y-34183152D01*
X142805667Y-34183152D02*
X142948524Y-34183152D01*
X142948524Y-34183152D02*
X143043762Y-34230771D01*
X143043762Y-34230771D02*
X143091381Y-34278390D01*
X143091381Y-34278390D02*
X143139000Y-34373628D01*
X143139000Y-34373628D02*
X143139000Y-34659342D01*
X143139000Y-34659342D02*
X143091381Y-34754580D01*
X143091381Y-34754580D02*
X143043762Y-34802200D01*
X143043762Y-34802200D02*
X142948524Y-34849819D01*
X142948524Y-34849819D02*
X142805667Y-34849819D01*
X126749523Y-24564819D02*
X126273333Y-24564819D01*
X126273333Y-24564819D02*
X126225714Y-25041009D01*
X126225714Y-25041009D02*
X126273333Y-24993390D01*
X126273333Y-24993390D02*
X126368571Y-24945771D01*
X126368571Y-24945771D02*
X126606666Y-24945771D01*
X126606666Y-24945771D02*
X126701904Y-24993390D01*
X126701904Y-24993390D02*
X126749523Y-25041009D01*
X126749523Y-25041009D02*
X126797142Y-25136247D01*
X126797142Y-25136247D02*
X126797142Y-25374342D01*
X126797142Y-25374342D02*
X126749523Y-25469580D01*
X126749523Y-25469580D02*
X126701904Y-25517200D01*
X126701904Y-25517200D02*
X126606666Y-25564819D01*
X126606666Y-25564819D02*
X126368571Y-25564819D01*
X126368571Y-25564819D02*
X126273333Y-25517200D01*
X126273333Y-25517200D02*
X126225714Y-25469580D01*
X127082857Y-24564819D02*
X127416190Y-25564819D01*
X127416190Y-25564819D02*
X127749523Y-24564819D01*
D11*
X112040000Y-127440000D03*
X149300000Y-48900000D03*
X137801334Y-91601334D03*
X148512299Y-50712299D03*
X137700000Y-51300000D03*
X147615497Y-49415497D03*
X144730000Y-92820000D03*
X143558638Y-100624039D03*
X144283138Y-102537701D03*
X143800000Y-51600000D03*
X141744918Y-53955788D03*
X141500000Y-50724500D03*
X141775500Y-51900000D03*
X141400000Y-52900000D03*
X151000000Y-50300000D03*
X140975500Y-91800000D03*
X140975500Y-103800000D03*
X138975500Y-91500000D03*
X142500000Y-102100000D03*
X169970000Y-57710000D03*
X174820000Y-76440000D03*
X205500000Y-67800000D03*
X62540000Y-61830000D03*
X200270000Y-82250000D03*
X140300000Y-102400000D03*
X195800000Y-59700000D03*
X66850000Y-32081500D03*
X66850000Y-38581500D03*
X62350000Y-32081500D03*
X62350000Y-38581500D03*
X50180000Y-38631500D03*
X50180000Y-32131500D03*
X54680000Y-38631500D03*
X54680000Y-32131500D03*
X42480000Y-32131500D03*
X42480000Y-38631500D03*
X37980000Y-32131500D03*
X37980000Y-38631500D03*
X129600000Y-85700000D03*
X87290000Y-114040000D03*
X87790000Y-117740000D03*
X92790000Y-114040000D03*
X92790000Y-119940000D03*
X98290000Y-114040000D03*
X158420000Y-127400000D03*
X158920000Y-131100000D03*
X163920000Y-127400000D03*
X163920000Y-133300000D03*
X169420000Y-127400000D03*
X53100000Y-65020000D03*
X53600000Y-68720000D03*
X58600000Y-65020000D03*
X58600000Y-70920000D03*
X64100000Y-65020000D03*
X145759000Y-24985000D03*
X145759000Y-27525000D03*
X145759000Y-30065000D03*
X145759000Y-32605000D03*
X145759000Y-35145000D03*
X145759000Y-37685000D03*
X145759000Y-40225000D03*
X145759000Y-42765000D03*
X145759000Y-45305000D03*
X143219000Y-45515000D03*
X140679000Y-45515000D03*
X138139000Y-45515000D03*
X135599000Y-45515000D03*
X133059000Y-45515000D03*
X130519000Y-45305000D03*
X130519000Y-42765000D03*
X130519000Y-40225000D03*
X130519000Y-37685000D03*
X130519000Y-35145000D03*
X130519000Y-32605000D03*
X130519000Y-30065000D03*
X130519000Y-27525000D03*
X130519000Y-24985000D03*
X173420000Y-96410000D03*
X173920000Y-100110000D03*
X178920000Y-96410000D03*
X178920000Y-102310000D03*
X184420000Y-96410000D03*
X115380000Y-127320000D03*
X115880000Y-131020000D03*
X120880000Y-127320000D03*
X120880000Y-133220000D03*
X126380000Y-127320000D03*
X209170000Y-61740000D03*
X209670000Y-65440000D03*
X214670000Y-61740000D03*
X214670000Y-67640000D03*
X220170000Y-61740000D03*
X99490000Y-79390000D03*
X99990000Y-83090000D03*
X104990000Y-79390000D03*
X104990000Y-85290000D03*
X110490000Y-79390000D03*
X185610000Y-53450000D03*
X186110000Y-57150000D03*
X191110000Y-53450000D03*
X191110000Y-59350000D03*
X196610000Y-53450000D03*
X148850000Y-91880000D03*
X149350000Y-95580000D03*
X154350000Y-91880000D03*
X154350000Y-97780000D03*
X159850000Y-91880000D03*
X191280000Y-78330000D03*
X191780000Y-82030000D03*
X196780000Y-78330000D03*
X196780000Y-84230000D03*
X202280000Y-78330000D03*
X237470000Y-73410000D03*
X237970000Y-77110000D03*
X242970000Y-73410000D03*
X242970000Y-79310000D03*
X248470000Y-73410000D03*
X165840000Y-73100000D03*
X166340000Y-76800000D03*
X171340000Y-73100000D03*
X171340000Y-79000000D03*
X176840000Y-73100000D03*
X205090000Y-36520000D03*
X205590000Y-40220000D03*
X210590000Y-36520000D03*
X210590000Y-42420000D03*
X216090000Y-36520000D03*
X161200000Y-49070000D03*
X161700000Y-52770000D03*
X166700000Y-49070000D03*
X166700000Y-54970000D03*
X172200000Y-49070000D03*
X77990000Y-62640000D03*
X78490000Y-66340000D03*
X83490000Y-62640000D03*
X83490000Y-68540000D03*
X88990000Y-62640000D03*
M02*
