M48
METRIC,TZ
T1C1.900
T2C3.000
T3C5.000
T4C12.600
%
G90
G05
T1
X53100Y-65020
X64100Y-65020
X77990Y-62640
X87290Y-114040
X88990Y-62640
X98290Y-114040
X99490Y-79390
X110490Y-79390
X115380Y-127320
X126380Y-127320
X148850Y-91880
X158420Y-127400
X159850Y-91880
X161200Y-49070
X165840Y-73100
X169420Y-127400
X172200Y-49070
X173420Y-96410
X176840Y-73100
X184420Y-96410
X185610Y-53450
X191280Y-78330
X196610Y-53450
X202280Y-78330
X205090Y-36520
X209170Y-61740
X216090Y-36520
X220170Y-61740
X237470Y-73410
X248470Y-73410
T2
X53600Y-68720
X58600Y-70920
X78490Y-66340
X83490Y-68540
X87790Y-117740
X92790Y-119940
X99990Y-83090
X104990Y-85290
X115880Y-131020
X120880Y-133220
X149350Y-95580
X154350Y-97780
X158920Y-131100
X161700Y-52770
X163920Y-133300
X166340Y-76800
X166700Y-54970
X171340Y-79000
X173920Y-100110
X178920Y-102310
X186110Y-57150
X191110Y-59350
X191780Y-82030
X196780Y-84230
X205590Y-40220
X209670Y-65440
X210590Y-42420
X214670Y-67640
X237970Y-77110
X242970Y-79310
T3
X58600Y-65020
X83490Y-62640
X92790Y-114040
X104990Y-79390
X120880Y-127320
X154350Y-91880
X163920Y-127400
X166700Y-49070
X171340Y-73100
X178920Y-96410
X191110Y-53450
X196780Y-78330
X210590Y-36520
X214670Y-61740
X242970Y-73410
T4
X129600Y-85700
T0
M30
