M48
METRIC,TZ
T1C0.400
T2C0.800
T3C1.050
%
G90
G05
T1
X62540Y-61830
X112040Y-127440
X137700Y-51300
X137801Y-91601
X138976Y-91500
X140300Y-102400
X140976Y-91800
X140976Y-103800
X141400Y-52900
X141500Y-50725
X141745Y-53956
X141776Y-51900
X142500Y-102100
X143559Y-100624
X143800Y-51600
X144283Y-102538
X144730Y-92820
X147615Y-49415
X148512Y-50712
X149300Y-48900
X151000Y-50300
X169970Y-57710
X174820Y-76440
X195800Y-59700
X200270Y-82250
X205500Y-67800
T2
X130519Y-24985
X130519Y-27525
X130519Y-30065
X130519Y-32605
X130519Y-35145
X130519Y-37685
X130519Y-40225
X130519Y-42765
X130519Y-45305
X133059Y-45515
X135599Y-45515
X138139Y-45515
X140679Y-45515
X143219Y-45515
X145759Y-24985
X145759Y-27525
X145759Y-30065
X145759Y-32605
X145759Y-35145
X145759Y-37685
X145759Y-40225
X145759Y-42765
X145759Y-45305
T3
X37980Y-32131
X37980Y-38632
X42480Y-32131
X42480Y-38632
X50180Y-32131
X50180Y-38632
X54680Y-32131
X54680Y-38632
X62350Y-32082
X62350Y-38582
X66850Y-32082
X66850Y-38582
T0
M30
