M48
; DRILL file {KiCad 7.0.7} date Sun Oct  8 10:30:22 2023
; FORMAT={-:-/ absolute / metric / decimal}
; #@! TF.CreationDate,2023-10-08T10:30:22+09:00
; #@! TF.GenerationSoftware,Kicad,Pcbnew,7.0.7
; #@! TF.FileFunction,NonPlated,1,2,NPTH
FMAT,2
METRIC
; #@! TA.AperFunction,NonPlated,NPTH,ComponentDrill
T1C1.900
; #@! TA.AperFunction,NonPlated,NPTH,ComponentDrill
T2C3.000
; #@! TA.AperFunction,NonPlated,NPTH,ComponentDrill
T3C5.000
; #@! TA.AperFunction,NonPlated,NPTH,ComponentDrill
T4C12.600
%
G90
G05
T1
X53.1Y-65.02
X64.1Y-65.02
X77.99Y-62.64
X87.29Y-114.04
X88.99Y-62.64
X98.29Y-114.04
X99.49Y-79.39
X110.49Y-79.39
X115.38Y-127.32
X126.38Y-127.32
X148.85Y-91.88
X158.42Y-127.4
X159.85Y-91.88
X161.2Y-49.07
X165.84Y-73.1
X169.42Y-127.4
X172.2Y-49.07
X173.42Y-96.41
X176.84Y-73.1
X184.42Y-96.41
X185.61Y-53.45
X191.28Y-78.33
X196.61Y-53.45
X202.28Y-78.33
X205.09Y-36.52
X209.17Y-61.74
X216.09Y-36.52
X220.17Y-61.74
X237.47Y-73.41
X248.47Y-73.41
T2
X53.6Y-68.72
X58.6Y-70.92
X78.49Y-66.34
X83.49Y-68.54
X87.79Y-117.74
X92.79Y-119.94
X99.99Y-83.09
X104.99Y-85.29
X115.88Y-131.02
X120.88Y-133.22
X149.35Y-95.58
X154.35Y-97.78
X158.92Y-131.1
X161.7Y-52.77
X163.92Y-133.3
X166.34Y-76.8
X166.7Y-54.97
X171.34Y-79.0
X173.92Y-100.11
X178.92Y-102.31
X186.11Y-57.15
X191.11Y-59.35
X191.78Y-82.03
X196.78Y-84.23
X205.59Y-40.22
X209.67Y-65.44
X210.59Y-42.42
X214.67Y-67.64
X237.97Y-77.11
X242.97Y-79.31
T3
X58.6Y-65.02
X83.49Y-62.64
X92.79Y-114.04
X104.99Y-79.39
X120.88Y-127.32
X154.35Y-91.88
X163.92Y-127.4
X166.7Y-49.07
X171.34Y-73.1
X178.92Y-96.41
X191.11Y-53.45
X196.78Y-78.33
X210.59Y-36.52
X214.67Y-61.74
X242.97Y-73.41
T4
X129.6Y-85.7
T0
M30
