M48
; DRILL file {KiCad 7.0.7} date Sun Oct  8 10:30:22 2023
; FORMAT={-:-/ absolute / metric / decimal}
; #@! TF.CreationDate,2023-10-08T10:30:22+09:00
; #@! TF.GenerationSoftware,Kicad,Pcbnew,7.0.7
; #@! TF.FileFunction,MixedPlating,1,2
FMAT,2
METRIC
; #@! TA.AperFunction,Plated,PTH,ViaDrill
T1C0.400
; #@! TA.AperFunction,Plated,PTH,ComponentDrill
T2C0.800
; #@! TA.AperFunction,Plated,PTH,ComponentDrill
T3C1.050
; #@! TA.AperFunction,NonPlated,NPTH,ComponentDrill
T4C1.900
; #@! TA.AperFunction,NonPlated,NPTH,ComponentDrill
T5C3.000
; #@! TA.AperFunction,NonPlated,NPTH,ComponentDrill
T6C5.000
; #@! TA.AperFunction,NonPlated,NPTH,ComponentDrill
T7C12.600
%
G90
G05
T1
X62.54Y-61.83
X112.04Y-127.44
X137.7Y-51.3
X137.801Y-91.601
X138.975Y-91.5
X140.3Y-102.4
X140.975Y-91.8
X140.975Y-103.8
X141.4Y-52.9
X141.5Y-50.724
X141.745Y-53.956
X141.775Y-51.9
X142.5Y-102.1
X143.559Y-100.624
X143.8Y-51.6
X144.283Y-102.538
X144.73Y-92.82
X147.615Y-49.415
X148.512Y-50.712
X149.3Y-48.9
X151.0Y-50.3
X169.97Y-57.71
X174.82Y-76.44
X195.8Y-59.7
X200.27Y-82.25
X205.5Y-67.8
T2
X130.519Y-24.985
X130.519Y-27.525
X130.519Y-30.065
X130.519Y-32.605
X130.519Y-35.145
X130.519Y-37.685
X130.519Y-40.225
X130.519Y-42.765
X130.519Y-45.305
X133.059Y-45.515
X135.599Y-45.515
X138.139Y-45.515
X140.679Y-45.515
X143.219Y-45.515
X145.759Y-24.985
X145.759Y-27.525
X145.759Y-30.065
X145.759Y-32.605
X145.759Y-35.145
X145.759Y-37.685
X145.759Y-40.225
X145.759Y-42.765
X145.759Y-45.305
T3
X37.98Y-32.131
X37.98Y-38.631
X42.48Y-32.131
X42.48Y-38.631
X50.18Y-32.131
X50.18Y-38.631
X54.68Y-32.131
X54.68Y-38.631
X62.35Y-32.081
X62.35Y-38.581
X66.85Y-32.081
X66.85Y-38.581
T4
X53.1Y-65.02
X64.1Y-65.02
X77.99Y-62.64
X87.29Y-114.04
X88.99Y-62.64
X98.29Y-114.04
X99.49Y-79.39
X110.49Y-79.39
X115.38Y-127.32
X126.38Y-127.32
X148.85Y-91.88
X158.42Y-127.4
X159.85Y-91.88
X161.2Y-49.07
X165.84Y-73.1
X169.42Y-127.4
X172.2Y-49.07
X173.42Y-96.41
X176.84Y-73.1
X184.42Y-96.41
X185.61Y-53.45
X191.28Y-78.33
X196.61Y-53.45
X202.28Y-78.33
X205.09Y-36.52
X209.17Y-61.74
X216.09Y-36.52
X220.17Y-61.74
X237.47Y-73.41
X248.47Y-73.41
T5
X53.6Y-68.72
X58.6Y-70.92
X78.49Y-66.34
X83.49Y-68.54
X87.79Y-117.74
X92.79Y-119.94
X99.99Y-83.09
X104.99Y-85.29
X115.88Y-131.02
X120.88Y-133.22
X149.35Y-95.58
X154.35Y-97.78
X158.92Y-131.1
X161.7Y-52.77
X163.92Y-133.3
X166.34Y-76.8
X166.7Y-54.97
X171.34Y-79.0
X173.92Y-100.11
X178.92Y-102.31
X186.11Y-57.15
X191.11Y-59.35
X191.78Y-82.03
X196.78Y-84.23
X205.59Y-40.22
X209.67Y-65.44
X210.59Y-42.42
X214.67Y-67.64
X237.97Y-77.11
X242.97Y-79.31
T6
X58.6Y-65.02
X83.49Y-62.64
X92.79Y-114.04
X104.99Y-79.39
X120.88Y-127.32
X154.35Y-91.88
X163.92Y-127.4
X166.7Y-49.07
X171.34Y-73.1
X178.92Y-96.41
X191.11Y-53.45
X196.78Y-78.33
X210.59Y-36.52
X214.67Y-61.74
X242.97Y-73.41
T7
X129.6Y-85.7
T0
M30
