M48
; DRILL file {KiCad 7.0.7} date Sun Oct  8 10:30:23 2023
; FORMAT={-:-/ absolute / metric / decimal}
; #@! TF.CreationDate,2023-10-08T10:30:23+09:00
; #@! TF.GenerationSoftware,Kicad,Pcbnew,7.0.7
; #@! TF.FileFunction,Plated,1,2,PTH
FMAT,2
METRIC
; #@! TA.AperFunction,Plated,PTH,ViaDrill
T1C0.400
; #@! TA.AperFunction,Plated,PTH,ComponentDrill
T2C0.800
; #@! TA.AperFunction,Plated,PTH,ComponentDrill
T3C1.050
%
G90
G05
T1
X62.54Y-61.83
X112.04Y-127.44
X137.7Y-51.3
X137.801Y-91.601
X138.975Y-91.5
X140.3Y-102.4
X140.975Y-91.8
X140.975Y-103.8
X141.4Y-52.9
X141.5Y-50.724
X141.745Y-53.956
X141.775Y-51.9
X142.5Y-102.1
X143.559Y-100.624
X143.8Y-51.6
X144.283Y-102.538
X144.73Y-92.82
X147.615Y-49.415
X148.512Y-50.712
X149.3Y-48.9
X151.0Y-50.3
X169.97Y-57.71
X174.82Y-76.44
X195.8Y-59.7
X200.27Y-82.25
X205.5Y-67.8
T2
X130.519Y-24.985
X130.519Y-27.525
X130.519Y-30.065
X130.519Y-32.605
X130.519Y-35.145
X130.519Y-37.685
X130.519Y-40.225
X130.519Y-42.765
X130.519Y-45.305
X133.059Y-45.515
X135.599Y-45.515
X138.139Y-45.515
X140.679Y-45.515
X143.219Y-45.515
X145.759Y-24.985
X145.759Y-27.525
X145.759Y-30.065
X145.759Y-32.605
X145.759Y-35.145
X145.759Y-37.685
X145.759Y-40.225
X145.759Y-42.765
X145.759Y-45.305
T3
X37.98Y-32.131
X37.98Y-38.631
X42.48Y-32.131
X42.48Y-38.631
X50.18Y-32.131
X50.18Y-38.631
X54.68Y-32.131
X54.68Y-38.631
X62.35Y-32.081
X62.35Y-38.581
X66.85Y-32.081
X66.85Y-38.581
T0
M30
